<!--?xml version="1.0" encoding="utf-8"?-->
<!-- Generator: Adobe Illustrator 21.1.0, SVG Export Plug-In . SVG Version: 6.00 Build 0)  -->
<svg version="1.1" id="Слой_1" xmlns="http://www.w3.org/2000/svg" xmlns:xlink="http://www.w3.org/1999/xlink" x="0px" y="0px" viewBox="0 0 100 100" style="" xml:space="preserve">
<style type="text/css">
	.st0{fill:none;stroke:#FFFFFF;stroke-linecap:round;stroke-linejoin:round;stroke-miterlimit:10;}
</style>
<g>
	<path class="st0 xACfUOQl_0" d="M58.3,89.1L29.5,76.6L28.6,10.9L34.2,16.2L35.2,67.7L58.5,75.4Z"></path>
	<path class="st0 xACfUOQl_1" d="M61.4,74L58.5,75.4L35.2,67.7L38,66.7Z"></path>
	<path class="st0 xACfUOQl_2" d="M34.2,16.2L35.2,67.7L38,66.7L37.4,16.5Z"></path>
	<path class="st0 xACfUOQl_3" d="M61.4,74L61.3,63.6L42.5,59.2L38,66.7Z"></path>
	<path class="st0 xACfUOQl_4" d="M37.4,16.5L38,66.7L42.5,59.2L42.2,20.7Z"></path>
	<path class="st0 xACfUOQl_5" d="M64.3,62.2L61.3,63.6L42.5,59.2L45.5,58.3Z"></path>
	<path class="st0 xACfUOQl_6" d="M42.2,20.7L42.5,59.2L45.5,58.3L44.6,20.9Z"></path>
	<path class="st0 xACfUOQl_7" d="M28.6,10.9L37.7,10.9L40.8,13.7L43.5,14L50.2,20.1L48.5,20.8L47.2,19.5L42.4,19.2L44.6,20.9L42.2,20.7L
		37.4,16.5L34.2,16.2Z"></path>
	<path class="st0 xACfUOQl_8" d="M58.3,89.1L68.3,86.3L68.6,79L71.3,78.3L71.4,63.4L68.6,62.4L68.7,66.2L64.4,66.8L64.3,62.2L61.3,63.6L
		61.4,74L58.5,75.4Z"></path>
	<path class="st0 xACfUOQl_9" d="M64.3,62.2L45.5,58.3L44.6,20.9L64.6,37.9Z"></path>
	<path class="st0 xACfUOQl_10" d="M68.6,62.4L68.7,66.2L64.4,66.8L64.3,62.2L64.6,37.9L44.6,20.9L42.4,19.2L47.2,19.5L49,21.2L68.5,37.9Z"></path>
	<path class="st0 xACfUOQl_11" d="M35.2,67.7L29.5,76.6"></path>
</g>
<style data-made-with="vivus-instant">.xACfUOQl_0{stroke-dasharray:195 197;stroke-dashoffset:196;animation:xACfUOQl_draw 666ms ease-out 0ms forwards;}.xACfUOQl_1{stroke-dasharray:56 58;stroke-dashoffset:57;animation:xACfUOQl_draw 666ms ease-out 30ms forwards;}.xACfUOQl_2{stroke-dasharray:108 110;stroke-dashoffset:109;animation:xACfUOQl_draw 666ms ease-out 60ms forwards;}.xACfUOQl_3{stroke-dasharray:63 65;stroke-dashoffset:64;animation:xACfUOQl_draw 666ms ease-out 90ms forwards;}.xACfUOQl_4{stroke-dasharray:104 106;stroke-dashoffset:105;animation:xACfUOQl_draw 666ms ease-out 121ms forwards;}.xACfUOQl_5{stroke-dasharray:45 47;stroke-dashoffset:46;animation:xACfUOQl_draw 666ms ease-out 151ms forwards;}.xACfUOQl_6{stroke-dasharray:82 84;stroke-dashoffset:83;animation:xACfUOQl_draw 666ms ease-out 181ms forwards;}.xACfUOQl_7{stroke-dasharray:57 59;stroke-dashoffset:58;animation:xACfUOQl_draw 666ms ease-out 212ms forwards;}.xACfUOQl_8{stroke-dasharray:82 84;stroke-dashoffset:83;animation:xACfUOQl_draw 666ms ease-out 242ms forwards;}.xACfUOQl_9{stroke-dasharray:108 110;stroke-dashoffset:109;animation:xACfUOQl_draw 666ms ease-out 272ms forwards;}.xACfUOQl_10{stroke-dasharray:124 126;stroke-dashoffset:125;animation:xACfUOQl_draw 666ms ease-out 303ms forwards;}.xACfUOQl_11{stroke-dasharray:11 13;stroke-dashoffset:12;animation:xACfUOQl_draw 666ms ease-out 333ms forwards;}@keyframes xACfUOQl_draw{100%{stroke-dashoffset:0;}}@keyframes xACfUOQl_fade{0%{stroke-opacity:1;}92.3076923076923%{stroke-opacity:1;}100%{stroke-opacity:0;}}</style></svg>
