<!--?xml version="1.0" encoding="utf-8"?-->
<!-- Generator: Adobe Illustrator 21.1.0, SVG Export Plug-In . SVG Version: 6.00 Build 0)  -->
<svg version="1.1" id="Слой_1" xmlns="http://www.w3.org/2000/svg" xmlns:xlink="http://www.w3.org/1999/xlink" x="0px" y="0px" viewBox="0 0 100 100" style="" xml:space="preserve">
<style type="text/css">
	.st0{fill:none;stroke:#FFFFFF;stroke-linecap:round;stroke-linejoin:round;stroke-miterlimit:10;}
</style>
<g>
	<path class="st0 tZtxsAUx_0" d="M18.2,10.8L18.2,70.7L24.5,74.1L24.5,14.3Z"></path>
	<path class="st0 tZtxsAUx_1" d="M26.1,72.3L26.1,15.1L35.7,20.8L35.7,62.2Z"></path>
	<path class="st0 tZtxsAUx_2" d="M50.2,86.1L26.1,72.3L35.7,62.2L50.2,70.6Z"></path>
	<path class="st0 tZtxsAUx_3" d="M38.1,20.2L35.7,20.8L35.7,62.2L38.1,61.3Z"></path>
	<path class="st0 tZtxsAUx_4" d="M50.2,70.6L52.5,69.7L38.1,61.3L35.7,62.2Z"></path>
	<path class="st0 tZtxsAUx_5" d="M18.2,72.3L18.2,76.3L54,96.9L54,92.2Z"></path>
	<path class="st0 tZtxsAUx_6" d="M24.5,74.1L25.9,73.6L26.8,72.7"></path>
	<path class="st0 tZtxsAUx_7" d="M50.2,86.1L51.8,85.7L51.8,84.6L53.4,84.1L53.4,81.9L58.7,80.7L58.7,82.6L60.5,82.1L60.5,83.4L61.9,83L
		61.9,68L60.5,68L60.5,71.4L52.5,73.3L52.5,69.7L50.2,70.6Z"></path>
	<path class="st0 tZtxsAUx_8" d="M54,92.2L55.4,91.8L55.4,90.3L72,86.1L72,84.8L81.6,81.6L81.6,89.4L54,96.9Z"></path>
	<path class="st0 tZtxsAUx_9" d="M52.5,73.3L52.5,28L38.1,20.2"></path>
	<path class="st0 tZtxsAUx_10" d="M18.2,10.8L45.9,3.1L52.3,6.9L24.5,14.3Z"></path>
	<path class="st0 tZtxsAUx_11" d="M26.1,15.1L28,14.6L26.6,13.7L35.1,11.5L36.3,12.3L37.8,11.8L46.9,17.3L45.8,17.7L43.9,16.7L36,19L
		38.1,20.2L35.7,20.8Z"></path>
	<path class="st0 tZtxsAUx_12" d="M56.5,72.4L56.5,26.8L40.2,17.8"></path>
	<path class="st0 tZtxsAUx_13" d="M60.5,71.4L60.5,26L43.9,16.7"></path>
	<path class="st0 tZtxsAUx_14" d="M61.9,80L69.9,84.6L69.9,68.8L60.5,63.7L60.5,68L61.9,68Z"></path>
	<path class="st0 tZtxsAUx_15" d="M72.2,67.5L60.5,60.4L60.5,63.7L69.9,68.8Z"></path>
	<path class="st0 tZtxsAUx_16" d="M69.9,84.6L73,83.5L73,76.2L78.5,74.7L78.5,81.3L81.6,80.3L81.6,65.9L80,65.6L79.9,69.1L72.2,71.1L
		72.2,67.5L69.9,68.8Z"></path>
	<path class="st0 tZtxsAUx_17" d="M54.2,22.4L54.2,17.8L48.6,14.8L48.6,19.3Z"></path>
	<path class="st0 tZtxsAUx_18" d="M56.5,23.8L56.5,17.4L54.2,17.8L54.2,22.4Z"></path>
	<path class="st0 tZtxsAUx_19" d="M48.6,14.8L44.7,15.9L40.3,13.3L56.2,8.9L65.4,14.5L64.2,15.1L61.7,13.6L53.4,15.7L56.5,17.4L
		54.2,17.8Z"></path>
	<path class="st0 tZtxsAUx_20" d="M72.2,71.1L72.2,26.4L53.4,15.7"></path>
	<path class="st0 tZtxsAUx_21" d="M76,70.1L76,24.2L58,14.5"></path>
	<path class="st0 tZtxsAUx_22" d="M79.9,69.1L79.9,23.8L61.7,13.6"></path>
	<path class="st0 tZtxsAUx_23" d="M52.3,6.9L52.3,10"></path>
	<path class="st0 tZtxsAUx_24" d="M81.6,81.6L79.7,80.9"></path>
</g>
<style data-made-with="vivus-instant">.tZtxsAUx_0{stroke-dasharray:135 137;stroke-dashoffset:136;animation:tZtxsAUx_draw 666ms ease-out 0ms forwards;}.tZtxsAUx_1{stroke-dasharray:124 126;stroke-dashoffset:125;animation:tZtxsAUx_draw 666ms ease-out 13ms forwards;}.tZtxsAUx_2{stroke-dasharray:74 76;stroke-dashoffset:75;animation:tZtxsAUx_draw 666ms ease-out 27ms forwards;}.tZtxsAUx_3{stroke-dasharray:88 90;stroke-dashoffset:89;animation:tZtxsAUx_draw 666ms ease-out 41ms forwards;}.tZtxsAUx_4{stroke-dasharray:39 41;stroke-dashoffset:40;animation:tZtxsAUx_draw 666ms ease-out 55ms forwards;}.tZtxsAUx_5{stroke-dasharray:91 93;stroke-dashoffset:92;animation:tZtxsAUx_draw 666ms ease-out 69ms forwards;}.tZtxsAUx_6{stroke-dasharray:3 5;stroke-dashoffset:4;animation:tZtxsAUx_draw 666ms ease-out 83ms forwards;}.tZtxsAUx_7{stroke-dasharray:69 71;stroke-dashoffset:70;animation:tZtxsAUx_draw 666ms ease-out 97ms forwards;}.tZtxsAUx_8{stroke-dasharray:73 75;stroke-dashoffset:74;animation:tZtxsAUx_draw 666ms ease-out 111ms forwards;}.tZtxsAUx_9{stroke-dasharray:62 64;stroke-dashoffset:63;animation:tZtxsAUx_draw 666ms ease-out 124ms forwards;}.tZtxsAUx_10{stroke-dasharray:73 75;stroke-dashoffset:74;animation:tZtxsAUx_draw 666ms ease-out 138ms forwards;}.tZtxsAUx_11{stroke-dasharray:54 56;stroke-dashoffset:55;animation:tZtxsAUx_draw 666ms ease-out 152ms forwards;}.tZtxsAUx_12{stroke-dasharray:65 67;stroke-dashoffset:66;animation:tZtxsAUx_draw 666ms ease-out 166ms forwards;}.tZtxsAUx_13{stroke-dasharray:65 67;stroke-dashoffset:66;animation:tZtxsAUx_draw 666ms ease-out 180ms forwards;}.tZtxsAUx_14{stroke-dasharray:54 56;stroke-dashoffset:55;animation:tZtxsAUx_draw 666ms ease-out 194ms forwards;}.tZtxsAUx_15{stroke-dasharray:31 33;stroke-dashoffset:32;animation:tZtxsAUx_draw 666ms ease-out 208ms forwards;}.tZtxsAUx_16{stroke-dasharray:76 78;stroke-dashoffset:77;animation:tZtxsAUx_draw 666ms ease-out 222ms forwards;}.tZtxsAUx_17{stroke-dasharray:22 24;stroke-dashoffset:23;animation:tZtxsAUx_draw 666ms ease-out 236ms forwards;}.tZtxsAUx_18{stroke-dasharray:17 19;stroke-dashoffset:18;animation:tZtxsAUx_draw 666ms ease-out 249ms forwards;}.tZtxsAUx_19{stroke-dasharray:62 64;stroke-dashoffset:63;animation:tZtxsAUx_draw 666ms ease-out 263ms forwards;}.tZtxsAUx_20{stroke-dasharray:67 69;stroke-dashoffset:68;animation:tZtxsAUx_draw 666ms ease-out 277ms forwards;}.tZtxsAUx_21{stroke-dasharray:67 69;stroke-dashoffset:68;animation:tZtxsAUx_draw 666ms ease-out 291ms forwards;}.tZtxsAUx_22{stroke-dasharray:67 69;stroke-dashoffset:68;animation:tZtxsAUx_draw 666ms ease-out 305ms forwards;}.tZtxsAUx_23{stroke-dasharray:4 6;stroke-dashoffset:5;animation:tZtxsAUx_draw 666ms ease-out 319ms forwards;}.tZtxsAUx_24{stroke-dasharray:3 5;stroke-dashoffset:4;animation:tZtxsAUx_draw 666ms ease-out 333ms forwards;}@keyframes tZtxsAUx_draw{100%{stroke-dashoffset:0;}}@keyframes tZtxsAUx_fade{0%{stroke-opacity:1;}92.3076923076923%{stroke-opacity:1;}100%{stroke-opacity:0;}}</style></svg>
