<!--?xml version="1.0" encoding="utf-8"?-->
<!-- Generator: Adobe Illustrator 21.1.0, SVG Export Plug-In . SVG Version: 6.00 Build 0)  -->
<svg version="1.1" id="Слой_1" xmlns="http://www.w3.org/2000/svg" xmlns:xlink="http://www.w3.org/1999/xlink" x="0px" y="0px" viewBox="0 0 100 100" style="" xml:space="preserve">
<style type="text/css">
	.st0{fill:none;stroke:#FFFFFF;stroke-linecap:round;stroke-linejoin:round;stroke-miterlimit:10;}
</style>
<g>
	<path class="st0 uAGRCZza_0" d="M25.4,9.7L25.4,78.7L32.8,67.2L32.8,16.1Z"></path>
	<path class="st0 uAGRCZza_1" d="M57.4,92.1L25.4,78.7L32.8,67.2L57.4,77.9Z"></path>
	<path class="st0 uAGRCZza_2" d="M60.6,76.6L57.4,77.9L32.8,67.2L36.3,66.2Z"></path>
	<path class="st0 uAGRCZza_3" d="M32.8,16.1L32.8,67.2L36.3,66.2L36.3,16.4Z"></path>
	<path class="st0 uAGRCZza_4" d="M40.2,20.2L36.3,16.4L36.3,66.2L40.2,60.8Z"></path>
	<path class="st0 uAGRCZza_5" d="M60.6,76.6L36.3,66.2L40.2,60.8L60.6,69.1Z"></path>
	<path class="st0 uAGRCZza_6" d="M43.6,20.3L40.2,20.2L40.2,60.8L43.6,59.3Z"></path>
	<path class="st0 uAGRCZza_7" d="M60.6,69.1L63.8,67.2L43.6,59.3L40.2,60.8Z"></path>
	<path class="st0 uAGRCZza_8" d="M63.8,67.2L63.8,40.5L43.6,20.3L43.6,59.3Z"></path>
	<path class="st0 uAGRCZza_9" d="M25.4,9.7L28.4,9.3L28.9,10L36.2,9.1L36.2,8.3L39,7.9L42.9,11.6L46.1,11.3L53.1,18.2L51.4,19L
		49.6,17.3L41.2,18.4L43.6,20.3L40.2,20.2L36.3,16.4L32.8,16.1Z"></path>
	<path class="st0 uAGRCZza_10" d="M57.4,92.1L60.3,91.7L60.3,90.3L65.7,89.5L68.6,90.8L71.3,90.4L71.3,82.7L74.6,82.1L74.6,67.6L
		71.9,66.2L71.9,70.4L63.8,71.5L63.8,67.2L60.6,69.1L60.6,76.6L57.4,77.9Z"></path>
	<path class="st0 uAGRCZza_11" d="M68,71L68,40.1L45.7,17.8"></path>
	<path class="st0 uAGRCZza_12" d="M71.9,70.4L71.9,39.7L49.6,17.3"></path>
</g>
<style data-made-with="vivus-instant">.uAGRCZza_0{stroke-dasharray:144 146;stroke-dashoffset:145;animation:uAGRCZza_draw 666ms ease-out 0ms forwards;}.uAGRCZza_1{stroke-dasharray:90 92;stroke-dashoffset:91;animation:uAGRCZza_draw 666ms ease-out 27ms forwards;}.uAGRCZza_2{stroke-dasharray:61 63;stroke-dashoffset:62;animation:uAGRCZza_draw 666ms ease-out 55ms forwards;}.uAGRCZza_3{stroke-dasharray:109 111;stroke-dashoffset:110;animation:uAGRCZza_draw 666ms ease-out 83ms forwards;}.uAGRCZza_4{stroke-dasharray:103 105;stroke-dashoffset:104;animation:uAGRCZza_draw 666ms ease-out 111ms forwards;}.uAGRCZza_5{stroke-dasharray:63 65;stroke-dashoffset:64;animation:uAGRCZza_draw 666ms ease-out 138ms forwards;}.uAGRCZza_6{stroke-dasharray:87 89;stroke-dashoffset:88;animation:uAGRCZza_draw 666ms ease-out 166ms forwards;}.uAGRCZza_7{stroke-dasharray:52 54;stroke-dashoffset:53;animation:uAGRCZza_draw 666ms ease-out 194ms forwards;}.uAGRCZza_8{stroke-dasharray:116 118;stroke-dashoffset:117;animation:uAGRCZza_draw 666ms ease-out 222ms forwards;}.uAGRCZza_9{stroke-dasharray:72 74;stroke-dashoffset:73;animation:uAGRCZza_draw 666ms ease-out 249ms forwards;}.uAGRCZza_10{stroke-dasharray:90 92;stroke-dashoffset:91;animation:uAGRCZza_draw 666ms ease-out 277ms forwards;}.uAGRCZza_11{stroke-dasharray:63 65;stroke-dashoffset:64;animation:uAGRCZza_draw 666ms ease-out 305ms forwards;}.uAGRCZza_12{stroke-dasharray:63 65;stroke-dashoffset:64;animation:uAGRCZza_draw 666ms ease-out 333ms forwards;}@keyframes uAGRCZza_draw{100%{stroke-dashoffset:0;}}@keyframes uAGRCZza_fade{0%{stroke-opacity:1;}92.3076923076923%{stroke-opacity:1;}100%{stroke-opacity:0;}}</style></svg>
