<!--?xml version="1.0" encoding="utf-8"?-->
<!-- Generator: Adobe Illustrator 21.1.0, SVG Export Plug-In . SVG Version: 6.00 Build 0)  -->
<svg version="1.1" id="Слой_1" xmlns="http://www.w3.org/2000/svg" xmlns:xlink="http://www.w3.org/1999/xlink" x="0px" y="0px" viewBox="0 0 100 100" style="" xml:space="preserve">
<style type="text/css">
	.st0{fill:none;stroke:#FFFFFF;stroke-linecap:round;stroke-linejoin:round;stroke-miterlimit:10;}
</style>
<g>
	<path class="st0 jDxHwJMH_0" d="M26.6,7.5L27.3,79L34.5,68.2L34.5,18.2Z"></path>
	<path class="st0 jDxHwJMH_1" d="M53.7,92.6L27.3,79L34.5,68.2L53.7,77.7Z"></path>
	<path class="st0 jDxHwJMH_2" d="M38.6,67.2L34.5,68.2L34.5,18.2L38.6,18.8Z"></path>
	<path class="st0 jDxHwJMH_3" d="M53.7,77.7L57.5,75.7L38.6,67.2L34.5,68.2Z"></path>
	<path class="st0 jDxHwJMH_4" d="M38.6,18.8L44.3,26.1L44.3,61.2L38.6,67.2Z"></path>
	<path class="st0 jDxHwJMH_5" d="M57.5,75.7L57.5,65.7L44.3,61.2L38.6,67.2Z"></path>
	<path class="st0 jDxHwJMH_6" d="M60.4,64.3L57.5,65.7L44.3,61.2L47.8,59.8Z"></path>
	<path class="st0 jDxHwJMH_7" d="M44.3,26.1L44.3,61.2L47.8,59.8L47.8,26.1Z"></path>
	<path class="st0 jDxHwJMH_8" d="M26.6,7.5L29.5,7.5L29.9,8.6L37.4,7.8L37.4,6.6L42.5,6.3L46.6,12.3L50.4,11.8L58.2,21.7L56,23.8L
		53.6,20.3L44.3,21.3L47.8,26.1L44.3,26.1L38.6,18.8L34.5,18.2Z"></path>
	<path class="st0 jDxHwJMH_9" d="M53.7,92.6L56.7,92.1L56.7,90.6L62.4,89.4L64.7,90.5L69.8,89.6L69.8,80.9L73.4,80.2L73.4,66.2L
		70.7,65.4L70.7,69.9L60.4,71.5L60.4,64.3L57.5,65.7L57.5,75.7L53.7,77.7Z"></path>
	<path class="st0 jDxHwJMH_10" d="M60.4,71.5L60.4,64.3L60.4,46.8L47.8,26.1"></path>
	<path class="st0 jDxHwJMH_11" d="M70.7,69.9L70.7,46L53.6,20.3"></path>
	<path class="st0 jDxHwJMH_12" d="M48.7,20.8L65.9,46.4L65.9,70.6"></path>
</g>
<style data-made-with="vivus-instant">.jDxHwJMH_0{stroke-dasharray:148 150;stroke-dashoffset:149;animation:jDxHwJMH_draw 666ms ease-out 0ms forwards;}.jDxHwJMH_1{stroke-dasharray:79 81;stroke-dashoffset:80;animation:jDxHwJMH_draw 666ms ease-out 27ms forwards;}.jDxHwJMH_2{stroke-dasharray:107 109;stroke-dashoffset:108;animation:jDxHwJMH_draw 666ms ease-out 55ms forwards;}.jDxHwJMH_3{stroke-dasharray:51 53;stroke-dashoffset:52;animation:jDxHwJMH_draw 666ms ease-out 83ms forwards;}.jDxHwJMH_4{stroke-dasharray:102 104;stroke-dashoffset:103;animation:jDxHwJMH_draw 666ms ease-out 111ms forwards;}.jDxHwJMH_5{stroke-dasharray:53 55;stroke-dashoffset:54;animation:jDxHwJMH_draw 666ms ease-out 138ms forwards;}.jDxHwJMH_6{stroke-dasharray:35 37;stroke-dashoffset:36;animation:jDxHwJMH_draw 666ms ease-out 166ms forwards;}.jDxHwJMH_7{stroke-dasharray:77 79;stroke-dashoffset:78;animation:jDxHwJMH_draw 666ms ease-out 194ms forwards;}.jDxHwJMH_8{stroke-dasharray:95 97;stroke-dashoffset:96;animation:jDxHwJMH_draw 666ms ease-out 222ms forwards;}.jDxHwJMH_9{stroke-dasharray:102 104;stroke-dashoffset:103;animation:jDxHwJMH_draw 666ms ease-out 249ms forwards;}.jDxHwJMH_10{stroke-dasharray:49 51;stroke-dashoffset:50;animation:jDxHwJMH_draw 666ms ease-out 277ms forwards;}.jDxHwJMH_11{stroke-dasharray:55 57;stroke-dashoffset:56;animation:jDxHwJMH_draw 666ms ease-out 305ms forwards;}.jDxHwJMH_12{stroke-dasharray:56 58;stroke-dashoffset:57;animation:jDxHwJMH_draw 666ms ease-out 333ms forwards;}@keyframes jDxHwJMH_draw{100%{stroke-dashoffset:0;}}@keyframes jDxHwJMH_fade{0%{stroke-opacity:1;}92.3076923076923%{stroke-opacity:1;}100%{stroke-opacity:0;}}</style></svg>
