<?xml version="1.0" encoding="utf-8"?>
<!-- Generator: Adobe Illustrator 18.1.1, SVG Export Plug-In . SVG Version: 6.00 Build 0)  -->
<svg version="1.1" id="Шар_1" xmlns="http://www.w3.org/2000/svg" xmlns:xlink="http://www.w3.org/1999/xlink" x="0px" y="0px"
	 viewBox="0 0 187 78" enable-background="new 0 0 187 78" xml:space="preserve">
<g id="Прямоугольник_20">
	<g>
		<rect x="0" y="1" fill-rule="evenodd" clip-rule="evenodd" fill="#C61A1A" width="187" height="66"/>
	</g>
</g>
<g id="Прямоугольник_21">
	<g>
		
			<rect x="86" y="59" transform="matrix(0.7071 -0.7071 0.7071 0.7071 -19.844 86.0915)" fill-rule="evenodd" clip-rule="evenodd" fill="#C61A1A" width="16" height="16"/>
	</g>
</g>
<g>
	<g>
		<path fill="#FFFFFF" d="M21.5,14.2h6.9v1.4h-2.7v7h-1.5v-7h-2.7V14.2z"/>
		<path fill="#FFFFFF" d="M33,14.1c2.5,0,4.4,1.7,4.4,4.3c0,2.5-1.9,4.3-4.4,4.3s-4.4-1.7-4.4-4.3C28.7,16,30.5,14.1,33,14.1z
			 M33,21.4c1.8,0,2.8-1.3,2.8-3c0-1.7-1.2-3-2.8-3c-1.6,0-2.8,1.2-2.8,3C30.2,20.1,31.5,21.4,33,21.4z"/>
		<path fill="#FFFFFF" d="M39.1,14.2c0.5,0,1.6-0.1,2.4-0.1c2,0,2.8,0.9,2.8,2.1c0,1-0.5,1.6-1.2,1.9v0c0.8,0.2,1.5,0.8,1.5,2
			c0,1.7-1.3,2.5-3.1,2.5c-0.8,0-1.8,0-2.3-0.1V14.2z M40.6,15.6v2.1h1c0.7,0,1.2-0.3,1.2-1.1c0-0.7-0.5-1-1.3-1
			C41.2,15.6,40.9,15.6,40.6,15.6z M40.6,19v2.2c0.2,0,0.6,0.1,1,0.1c1,0,1.5-0.4,1.5-1.2c0-0.7-0.5-1.1-1.5-1.1H40.6z"/>
		<path fill="#FFFFFF" d="M48.3,14.2h1.4v2.9h-1.4V14.2z M50.5,14.2h1.4v2.9h-1.4V14.2z"/>
		<path fill="#FFFFFF" d="M59.1,15.6h-3.7v7h-1.5v-8.4h6.7v8.4h-1.5V15.6z"/>
		<path fill="#FFFFFF" d="M62.9,22.6v-8.4c0.5,0,1.8,0,2.4,0c2.5,0,3.3,1.3,3.3,2.7c0,1.4-1.1,2.7-3.1,2.7c-0.3,0-0.7,0-1.1,0v3
			H62.9z M64.3,15.6v2.6c0.3,0,0.7,0.1,1,0.1c0.9,0,1.6-0.4,1.6-1.4c0-0.9-0.5-1.3-1.5-1.3C65.1,15.6,64.7,15.6,64.3,15.6z"/>
		<path fill="#FFFFFF" d="M73.9,14.1c2.5,0,4.4,1.7,4.4,4.3c0,2.5-1.9,4.3-4.4,4.3s-4.4-1.7-4.4-4.3C69.5,16,71.3,14.1,73.9,14.1z
			 M73.9,21.4c1.8,0,2.8-1.3,2.8-3c0-1.7-1.2-3-2.8-3c-1.6,0-2.8,1.2-2.8,3C71.1,20.1,72.3,21.4,73.9,21.4z"/>
		<path fill="#FFFFFF" d="M83.1,21.6c-2.3,0-3.9-1.2-3.9-3.3c0-2.1,1.6-3.3,3.9-3.3v-0.9h1.5V15c2.3,0,3.9,1.2,3.9,3.3
			c0,2.1-1.6,3.3-3.9,3.3v1.1h-1.5V21.6z M83.1,20.2v-3.9c-1.5,0-2.3,0.8-2.3,1.9C80.8,19.6,81.6,20.2,83.1,20.2z M84.6,16.3v3.9
			c1.5,0,2.3-0.7,2.3-1.9C86.9,17.2,86.2,16.4,84.6,16.3z"/>
		<path fill="#FFFFFF" d="M92.3,14.2h1.3l3.6,8.4h-1.6l-0.9-2.1h-3.6l-0.9,2.1h-1.5L92.3,14.2z M91.6,19.1h2.5l-1.2-3L91.6,19.1z"/>
		<path fill="#FFFFFF" d="M98.4,22.6v-8.4h1.5v6l4.4-6h1.3v8.4h-1.5v-6l-4.4,6H98.4z M101.1,12.2c0.1,0.5,0.4,0.7,1,0.7
			c0.5,0,0.9-0.2,1-0.7h1.4c0,1-1,1.7-2.3,1.7c-1.4,0-2.3-0.7-2.4-1.7H101.1z"/>
		<path fill="#FFFFFF" d="M113.2,19h-3.8v3.6h-1.5v-8.4h1.5v3.4h3.8v-3.4h1.5v8.4h-1.5V19z"/>
		<path fill="#FFFFFF" d="M123.5,20.7c-0.6,1.3-1.2,2-2.3,2c-0.4,0-0.9-0.2-1.2-0.3l0.5-1.2c0.2,0.2,0.4,0.2,0.6,0.2
			c0.4,0,0.7-0.2,0.8-0.6l0.1-0.3l-3.7-6.1h1.7l2.7,4.7l2-4.7h1.5L123.5,20.7z"/>
		<path fill="#FFFFFF" d="M127.7,14.2h1.5v4l3.3-4h1.8l-3.5,3.9l3.7,4.5h-1.9l-3.4-4.3v4.3h-1.5V14.2z"/>
		<path fill="#FFFFFF" d="M135.8,22.6v-8.4c0.5,0,1.8,0,2.4,0c2.5,0,3.3,1.3,3.3,2.7c0,1.4-1.1,2.7-3.1,2.7c-0.3,0-0.7,0-1.1,0v3
			H135.8z M137.3,15.6v2.6c0.3,0,0.7,0.1,1,0.1c0.9,0,1.6-0.4,1.6-1.4c0-0.9-0.5-1.3-1.5-1.3C138,15.6,137.6,15.6,137.3,15.6z"/>
		<path fill="#FFFFFF" d="M144.8,14.2h1.3l3.5,8.4h-1.6l-0.9-2.1h-3.6l-0.9,2.1h-1.5L144.8,14.2z M144.2,19.1h2.5l-1.2-3L144.2,19.1
			z"/>
		<path fill="#FFFFFF" d="M150.9,12c0.4,0,0.8,0.3,0.8,0.7c0,0.5-0.4,0.8-0.8,0.8c-0.4,0-0.8-0.3-0.8-0.8
			C150.1,12.3,150.5,12,150.9,12z M151.1,14.2h1.5v8.4h-1.5V14.2z M152.9,12c0.4,0,0.7,0.3,0.7,0.7c0,0.5-0.4,0.8-0.7,0.8
			c-0.4,0-0.8-0.3-0.8-0.8C152.1,12.3,152.5,12,152.9,12z"/>
		<path fill="#FFFFFF" d="M160.4,19h-3.8v3.6h-1.5v-8.4h1.5v3.4h3.8v-3.4h1.5v8.4h-1.5V19z"/>
		<path fill="#FFFFFF" d="M166.7,14.2h1.3l3.5,8.4H170l-0.9-2.1h-3.6l-0.9,2.1h-1.5L166.7,14.2z M166.1,19.1h2.5l-1.2-3L166.1,19.1z
			"/>
		<path fill="#FFFFFF" d="M171.7,14.2h1.4v2.9h-1.4V14.2z M173.8,14.2h1.4v2.9h-1.4V14.2z"/>
	</g>
	<g>
		<path fill="#FFFFFF" d="M48.5,28.5l0.6,1c-1.4,0.4-2.6,1.5-3.1,3.1c0.3-0.5,0.9-0.8,1.7-0.8c1.3,0,2.4,1,2.4,2.6
			c0,1.8-1.4,2.8-2.7,2.8c-1.9,0-3-1.4-3-3.1C44.3,31,46.6,28.9,48.5,28.5z M47.4,35.8c0.8,0,1.2-0.6,1.2-1.3c0-0.8-0.5-1.4-1.4-1.4
			c-0.8,0-1.2,0.5-1.4,0.9C45.8,35,46.4,35.8,47.4,35.8z"/>
		<path fill="#FFFFFF" d="M52.3,37.1L51.9,36c1.7-0.3,2.8-1.4,3.1-2.9c-0.3,0.5-0.9,0.8-1.6,0.8c-1.4,0-2.5-1.1-2.5-2.6
			c0-1.8,1.4-2.8,2.8-2.8c1.9,0,3,1.3,3,3.2C56.6,34.9,54.7,36.9,52.3,37.1z M53.7,29.9c-0.8,0-1.3,0.6-1.3,1.3
			c0,0.7,0.5,1.4,1.4,1.4c0.8,0,1.2-0.5,1.4-0.9C55.2,30.7,54.7,29.9,53.7,29.9z"/>
		<path fill="#FFFFFF" d="M60.5,28.5c1.9,0,2.8,1.7,2.8,4.3s-0.9,4.3-2.8,4.3c-1.9,0-2.8-1.7-2.8-4.3S58.6,28.5,60.5,28.5z
			 M60.5,35.8c1,0,1.3-0.9,1.3-3s-0.4-3-1.3-3c-0.9,0-1.3,1-1.3,3C59.2,34.9,59.6,35.8,60.5,35.8z"/>
		<path fill="#FFFFFF" d="M68.5,28.5l0.6,1c-1.4,0.4-2.6,1.5-3.1,3.1c0.3-0.5,0.9-0.8,1.7-0.8c1.3,0,2.4,1,2.4,2.6
			c0,1.8-1.4,2.8-2.7,2.8c-1.9,0-3-1.4-3-3.1C64.4,31,66.7,28.9,68.5,28.5z M67.4,35.8c0.8,0,1.2-0.6,1.2-1.3c0-0.8-0.5-1.4-1.4-1.4
			c-0.8,0-1.2,0.5-1.4,0.9C65.8,35,66.4,35.8,67.4,35.8z"/>
		<path fill="#FFFFFF" d="M72.1,28.6h4V30h-2.8L73,31.7c0.1,0,0.3,0,0.5,0c1.5,0,2.6,1,2.6,2.7c0,1.8-1.3,2.9-2.9,2.9
			c-0.9,0-1.9-0.4-2.5-1.2l0.8-1c0.4,0.5,1.1,0.9,1.7,0.9c0.8,0,1.4-0.6,1.4-1.4c0-0.8-0.7-1.5-1.8-1.5c-0.5,0-1.1,0.1-1.4,0.2
			L72.1,28.6z"/>
		<path fill="#FFFFFF" d="M78.2,35.4c0.6,0,1.1,0.6,1.1,1.3c0,1-0.6,1.8-1.5,2l-0.4-0.6c0.3-0.1,0.6-0.3,0.7-0.6
			c0.1-0.2,0.2-0.4,0.1-0.6C78.1,37,78,37,77.9,37c-0.3,0-0.6-0.3-0.6-0.8C77.3,35.7,77.6,35.4,78.2,35.4z"/>
		<path fill="#FFFFFF" d="M82.6,31.6h1.2l1.8,2.3l1.7-2.3h1.2V37h-1.4v-3.3l-1.6,2h0l-1.6-2V37h-1.4V31.6z"/>
		<path fill="#FFFFFF" d="M90.9,35.2c0.5,0,0.9,0.5,0.9,0.9c0,0.5-0.4,1-0.9,1c-0.6,0-1-0.5-1-1C89.9,35.7,90.3,35.2,90.9,35.2z"/>
		<path fill="#FFFFFF" d="M94.8,35.7l0.8-1c0.5,0.6,1.3,1,2,1c0.8,0,1.5-0.4,1.5-1.2c0-0.7-0.5-1.1-1.5-1.1h-0.9V32h0.8
			c0.6,0,1.2-0.4,1.2-1.1c0-0.7-0.5-1.1-1.2-1.1c-0.7,0-1.2,0.3-1.7,0.9l-0.9-1c0.6-0.8,1.6-1.3,2.7-1.3c1.5,0,2.5,0.8,2.5,2.3
			c0,0.6-0.3,1.4-1.1,1.8v0c1,0.3,1.5,1,1.5,2c0,1.5-1.4,2.5-2.9,2.5C96.2,37.1,95.2,36.4,94.8,35.7z"/>
		<path fill="#FFFFFF" d="M102.2,32c0.5-0.3,1.2-0.5,1.9-0.5c1.6,0,2.2,0.8,2.2,2.2V37h-1.2v-0.6c-0.3,0.4-0.9,0.7-1.6,0.7
			c-1,0-1.7-0.6-1.7-1.7c0-1.2,0.9-1.8,2-1.8c0.5,0,1,0.2,1.2,0.3c0-0.9-0.2-1.4-1-1.4c-0.6,0-1,0.2-1.4,0.4L102.2,32z M105,35.4
			v-0.6c-0.2-0.2-0.6-0.3-0.9-0.3c-0.5,0-0.9,0.2-0.9,0.7c0,0.4,0.3,0.6,0.8,0.6C104.5,35.9,104.8,35.7,105,35.4z"/>
		<path fill="#FFFFFF" d="M111.4,32.9h-2.3V37h-1.4v-5.4h5.1V37h-1.4V32.9z"/>
		<path fill="#FFFFFF" d="M116.9,31.5c1.8,0,2.9,1.2,2.9,2.8s-1.2,2.8-2.9,2.8s-2.9-1.2-2.9-2.8S115.1,31.5,116.9,31.5z M116.9,35.9
			c0.9,0,1.5-0.6,1.5-1.5c0-0.9-0.6-1.5-1.5-1.5c-0.8,0-1.5,0.6-1.5,1.5C115.4,35.2,116,35.9,116.9,35.9z"/>
		<path fill="#FFFFFF" d="M121,31.6h1.4v0.5c0.3-0.4,1-0.6,1.7-0.6c1.5,0,2.4,1.2,2.4,2.7c0,1.6-1.1,2.9-2.9,2.9
			c-0.5,0-0.9-0.1-1.3-0.3v2.5H121V31.6z M122.4,33.4v2.2c0.4,0.2,0.7,0.3,1.1,0.3c1,0,1.5-0.7,1.5-1.6c0-0.9-0.5-1.5-1.4-1.5
			C123.2,32.8,122.7,33,122.4,33.4z"/>
		<path fill="#FFFFFF" d="M128.6,28.9c0.4,0,0.8,0.3,0.8,0.8c0,0.6-0.4,0.9-0.8,0.9c-0.5,0-0.9-0.3-0.9-0.9
			C127.8,29.2,128.2,28.9,128.6,28.9z M127.9,31.6h1.4V37h-1.4V31.6z"/>
		<path fill="#FFFFFF" d="M130.5,31.6h1.7l1.6,2.6L132,37h-1.6l1.9-2.8L130.5,31.6z M133.8,31.6h1.4V37h-1.4V31.6z M136.8,34.2
			l1.9,2.8h-1.6l-1.8-2.8l1.7-2.6h1.6L136.8,34.2z"/>
		<path fill="#FFFFFF" d="M139,31.6h1.7l1.6,2.6l-1.8,2.8h-1.6l1.9-2.8L139,31.6z M142.3,31.6h1.4V37h-1.4V31.6z M145.2,34.2
			l1.9,2.8h-1.6l-1.8-2.8l1.7-2.6h1.6L145.2,34.2z"/>
		<path fill="#FFFFFF" d="M152.3,31.6V37H151v-1.6h-0.8l-1.1,1.6h-1.6l1.4-1.9c-0.5-0.2-1-0.7-1-1.6c0-1,0.7-1.9,2.7-1.9H152.3z
			 M150.2,34.4h0.7v-1.6h-0.6c-0.7,0-1,0.4-1,0.8C149.4,34.1,149.8,34.4,150.2,34.4z"/>
	</g>
	<g>
		<path fill="#FFFFFF" d="M32.9,46c0.5,0,1.3-0.1,2.1-0.1c1.6,0,2.4,0.4,2.4,1.4c0,0.6-0.5,1.1-1,1.2v0c0.8,0.2,1.2,0.6,1.2,1.2
			c0,1.1-0.8,1.6-2.6,1.6c-0.7,0-1.7-0.1-2.1-0.1V46z M34.3,47.1v1.2h0.9c0.5,0,0.8-0.2,0.8-0.6c0-0.4-0.3-0.6-0.9-0.6
			C34.8,47.1,34.4,47.1,34.3,47.1z M34.3,49.1v1.2c0.2,0,0.6,0,0.9,0c0.6,0,1-0.3,1-0.6c0-0.4-0.4-0.6-1-0.6H34.3z"/>
		<path fill="#FFFFFF" d="M42,51.4c-0.8,1.9-1.3,2.4-2.1,2.4c-0.5,0-0.9-0.2-1.2-0.4l0.4-1c0.1,0.1,0.3,0.2,0.6,0.2
			c0.3,0,0.6-0.3,0.8-0.8l0.1-0.3L38.2,46h1.7l1.3,3c0.1,0.3,0.2,0.5,0.3,0.8c0-0.3,0.1-0.5,0.2-0.8l1-2.9h1.6L42,51.4z"/>
		<path fill="#FFFFFF" d="M48,47.4h-1.4l0,0.6c-0.3,2.9-1,3.5-2.4,3.5L44,50.2c0.5,0,1.1-0.4,1.2-2.5l0.1-1.7h4.1v5.4H48V47.4z"/>
		<path fill="#FFFFFF" d="M51.7,49.6c0.5,0,0.9,0.5,0.9,0.9c0,0.5-0.4,1-0.9,1c-0.6,0-1-0.5-1-1C50.7,50.1,51.1,49.6,51.7,49.6z"/>
		<path fill="#FFFFFF" d="M56.3,43h4.9v1.4h-3.4v2.1h3v1.4h-3V50h3.5v1.4h-5V43z"/>
		<path fill="#FFFFFF" d="M66.4,47.4H65l0,0.6c-0.3,2.9-1,3.5-2.4,3.5l-0.1-1.3c0.5,0,1.1-0.4,1.2-2.5l0.1-1.7h4.1v5.4h-1.4V47.4z"
			/>
		<path fill="#FFFFFF" d="M73.9,50.9c-0.5,0.5-1.3,0.7-2.1,0.7c-1.7,0-2.9-1.1-2.9-2.8c0-1.6,1.1-2.8,2.9-2.8c1.4,0,2.6,1,2.6,2.5
			c0,0.3,0,0.5-0.1,0.7h-3.9c0.1,0.8,0.8,1.3,1.6,1.3c0.7,0,1.2-0.2,1.5-0.5L73.9,50.9z M70.4,48.2H73c0-0.7-0.4-1.2-1.2-1.2
			C70.9,47,70.5,47.5,70.4,48.2z"/>
		<path fill="#FFFFFF" d="M75.5,46h1.4v5.4h-1.4V46z M78.5,48.6l2.3,2.8h-1.8l-2.1-2.7l1.9-2.7h1.7L78.5,48.6z"/>
		<path fill="#FFFFFF" d="M81.1,46H86v1.4h-1.8v4h-1.4v-4h-1.8V46z"/>
		<path fill="#FFFFFF" d="M87,46h1.4v0.5c0.3-0.4,1-0.6,1.7-0.6c1.5,0,2.4,1.2,2.4,2.7c0,1.6-1.1,2.9-2.9,2.9
			c-0.5,0-0.9-0.1-1.3-0.3v2.5H87V46z M88.4,47.8v2.2c0.4,0.2,0.7,0.3,1.1,0.3c1,0,1.5-0.7,1.5-1.6c0-0.9-0.5-1.5-1.4-1.5
			C89.2,47.2,88.7,47.4,88.4,47.8z"/>
		<path fill="#FFFFFF" d="M96.3,45.9c1.8,0,2.9,1.2,2.9,2.8s-1.2,2.8-2.9,2.8s-2.9-1.2-2.9-2.8S94.5,45.9,96.3,45.9z M96.3,50.3
			c0.9,0,1.5-0.6,1.5-1.5c0-0.9-0.6-1.5-1.5-1.5c-0.8,0-1.5,0.6-1.5,1.5C94.9,49.6,95.5,50.3,96.3,50.3z"/>
		<path fill="#FFFFFF" d="M100,50.6l0.7-0.9c0.3,0.4,1,0.7,1.5,0.7c0.7,0,1.1-0.3,1.1-0.7c0-0.4-0.3-0.6-0.8-0.6h-1v-0.9h0.9
			c0.5,0,0.7-0.3,0.7-0.7c0-0.4-0.3-0.6-0.9-0.6c-0.6,0-1.1,0.3-1.5,0.6l-0.6-0.8c0.5-0.6,1.3-0.9,2.3-0.9c1.4,0,2.2,0.6,2.2,1.5
			c0,0.5-0.4,1-1,1.2v0c0.8,0.1,1.1,0.6,1.1,1.3c0,1-1,1.6-2.4,1.6C101.4,51.5,100.4,51.1,100,50.6z"/>
		<path fill="#FFFFFF" d="M106.2,46.4c0.5-0.3,1.2-0.5,1.9-0.5c1.6,0,2.2,0.8,2.2,2.2v3.3h-1.2v-0.6c-0.3,0.4-0.9,0.7-1.6,0.7
			c-1,0-1.7-0.6-1.7-1.7c0-1.2,0.9-1.8,2-1.8c0.5,0,1,0.2,1.2,0.3c0-0.9-0.2-1.4-1-1.4c-0.6,0-1,0.2-1.4,0.4L106.2,46.4z M109,49.8
			v-0.6c-0.2-0.2-0.6-0.3-0.9-0.3c-0.5,0-0.9,0.2-0.9,0.7c0,0.4,0.3,0.6,0.8,0.6C108.5,50.3,108.8,50.1,109,49.8z"/>
		<path fill="#FFFFFF" d="M111.7,46c0.5,0,1.3-0.1,2.1-0.1c1.6,0,2.4,0.4,2.4,1.4c0,0.6-0.5,1.1-1,1.2v0c0.8,0.2,1.2,0.6,1.2,1.2
			c0,1.1-0.8,1.6-2.6,1.6c-0.7,0-1.7-0.1-2.1-0.1V46z M113.1,47.1v1.2h0.9c0.5,0,0.8-0.2,0.8-0.6c0-0.4-0.3-0.6-0.9-0.6
			C113.6,47.1,113.2,47.1,113.1,47.1z M113.1,49.1v1.2c0.2,0,0.6,0,0.9,0c0.6,0,1-0.3,1-0.6c0-0.4-0.4-0.6-1-0.6H113.1z"/>
		<path fill="#FFFFFF" d="M120.3,45.9c1.8,0,2.9,1.2,2.9,2.8s-1.2,2.8-2.9,2.8s-2.9-1.2-2.9-2.8S118.5,45.9,120.3,45.9z M120.3,50.3
			c0.9,0,1.5-0.6,1.5-1.5c0-0.9-0.6-1.5-1.5-1.5c-0.8,0-1.5,0.6-1.5,1.5C118.8,49.6,119.5,50.3,120.3,50.3z"/>
		<path fill="#FFFFFF" d="M123.6,50.1h0.7c0.4-0.5,0.7-1.6,0.8-2.8l0.1-1.3h4v4.1h0.9v2.5h-1.3v-1.3h-3.8v1.3h-1.3V50.1z
			 M125.8,50.1h2v-2.8h-1.3l0,0.6C126.3,49,126,49.8,125.8,50.1z"/>
		<path fill="#FFFFFF" d="M135.7,50.6c-0.5,0.6-1.3,0.9-2.1,0.9c-1.8,0-2.9-1.1-2.9-2.8c0-1.6,1.2-2.8,2.8-2.8
			c0.9,0,1.7,0.2,2.2,0.7l-0.6,1.1c-0.4-0.4-0.9-0.5-1.3-0.5c-0.8,0-1.5,0.6-1.5,1.5c0,1,0.7,1.5,1.6,1.5c0.6,0,1-0.3,1.4-0.7
			L135.7,50.6z"/>
		<path fill="#FFFFFF" d="M136.8,46h1.4v1.5h0.7c1.8,0,2.4,0.9,2.4,1.9c0,1-0.6,2.1-2.5,2.1h-2V46z M138.2,48.6v1.6h0.6
			c0.7,0,1-0.3,1-0.8c0-0.5-0.3-0.8-1-0.8H138.2z"/>
		<path fill="#FFFFFF" d="M142.4,46h1.4v5.4h-1.4V46z M145.4,48.6l2.3,2.8H146l-2.1-2.7l1.9-2.7h1.7L145.4,48.6z"/>
		<path fill="#FFFFFF" d="M148.7,46.4c0.5-0.3,1.2-0.5,1.9-0.5c1.6,0,2.2,0.8,2.2,2.2v3.3h-1.2v-0.6c-0.3,0.4-0.9,0.7-1.6,0.7
			c-1,0-1.7-0.6-1.7-1.7c0-1.2,0.9-1.8,2-1.8c0.5,0,1,0.2,1.2,0.3c0-0.9-0.2-1.4-1-1.4c-0.6,0-1,0.2-1.4,0.4L148.7,46.4z
			 M151.4,49.8v-0.6c-0.2-0.2-0.6-0.3-0.9-0.3c-0.5,0-0.9,0.2-0.9,0.7c0,0.4,0.3,0.6,0.8,0.6C151,50.3,151.3,50.1,151.4,49.8z"/>
		<path fill="#FFFFFF" d="M154.9,49.8c0.6,0,1.1,0.6,1.1,1.3c0,1-0.6,1.8-1.5,2l-0.4-0.6c0.3-0.1,0.6-0.3,0.7-0.6
			c0.1-0.2,0.2-0.4,0.1-0.6c-0.1,0.1-0.2,0.1-0.3,0.1c-0.3,0-0.6-0.3-0.6-0.8C153.9,50.1,154.3,49.8,154.9,49.8z"/>
		<path fill="#FFFFFF" d="M158.7,50.1l0.8-1c0.4,0.6,1.1,1,1.8,1c0.9,0,1.4-0.5,1.4-1.2c0-0.8-0.6-1.2-1.6-1.2h-0.6v-1.4h0.5
			c0.7,0,1.3-0.4,1.3-1.2c0-0.6-0.3-1-1.1-1c-0.7,0-1.2,0.3-1.6,0.9l-0.8-1c0.5-0.9,1.3-1.3,2.5-1.3c1.4,0,2.4,0.8,2.4,2.1
			c0,0.9-0.4,1.6-1.3,2v0c1,0.2,1.6,1,1.6,2c0,1.5-1.2,2.5-2.7,2.5C160.1,51.5,159.2,51,158.7,50.1z"/>
	</g>
</g>
</svg>
