<?xml version="1.0" encoding="utf-8"?>
<!-- Generator: Adobe Illustrator 18.1.1, SVG Export Plug-In . SVG Version: 6.00 Build 0)  -->
<svg version="1.1" xmlns="http://www.w3.org/2000/svg" xmlns:xlink="http://www.w3.org/1999/xlink" x="0px" y="0px"
	 viewBox="-137 135 26 34" enable-background="new -137 135 26 34" xml:space="preserve">
<g id="Layer_2">
	<rect x="-131.7" y="141.2" fill="#00728f" width="15" height="15.2"/>
</g>
<g id="Layer_1">
	<title>pintype2-icon</title>
	<g id="Слой_2">
		<g id="Слой_1-2">
			<path fill="#00a2be" d="M-124,135.3c-7.2,0-13,5.8-13,13c0,0,0,0,0,0c0,10.4,11.8,20,11.8,20c0.7,0.6,1.8,0.6,2.5,0
				c0,0,11.8-9.6,11.8-20C-111,141.1-116.8,135.3-124,135.3C-124,135.3-124,135.3-124,135.3z M-124,154.8c-3.6,0-6.5-2.9-6.5-6.5
				c0-3.6,2.9-6.5,6.5-6.5c3.6,0,6.5,2.9,6.5,6.5C-117.5,151.9-120.4,154.8-124,154.8z"/>
		</g>
	</g>
</g>
</svg>
