<?xml version="1.0" encoding="utf-8"?>
<!-- Generator: Adobe Illustrator 18.1.1, SVG Export Plug-In . SVG Version: 6.00 Build 0)  -->
<svg version="1.1" id="Layer_1" xmlns="http://www.w3.org/2000/svg" xmlns:xlink="http://www.w3.org/1999/xlink" x="0px" y="0px"
	 viewBox="-130 131 41 41" enable-background="new -130 131 41 41" xml:space="preserve">
<title>point-icon</title>
<g id="Слой_2">
	<g id="Слой_1-2">
		<polygon points="-108.7,177.7 -110.6,175.1 -110.6,150.4 -108.7,150.4 		"/>
		<path fill="#00728f" d="M-116.4,133.1c-5,3.6-6.2,10.6-2.6,15.6s10.6,6.2,15.6,2.6c2.6-1.8,4.2-4.7,4.6-7.8
			c-1.7,0.9-3.6,1.4-5.5,1.4C-110.9,144.9-116.2,139.7-116.4,133.1z"/>
		<path d="M-109.2,131c-1.9,0-3.8,0.6-5.4,1.8c0.1,5.4,4.5,9.7,9.9,9.7c1.6,0,3.1-0.4,4.6-1.1c0.1-0.4,0.1-0.7,0.1-1.1
			C-99.9,135.1-104.1,131-109.2,131z"/>
		<path fill="#00a2be" d="M-109.8,131c-2.4,0-4.7,0.8-6.6,2.1c0.2,6.6,5.5,11.8,12.1,11.8c1.9,0,3.8-0.5,5.5-1.4
			c0.1-0.4,0.1-0.9,0.1-1.3C-98.6,136-103.6,131-109.8,131z"/>
	</g>
</g>
</svg>
