<!--?xml version="1.0" encoding="utf-8"?-->
<!-- Generator: Adobe Illustrator 21.1.0, SVG Export Plug-In . SVG Version: 6.00 Build 0)  -->
<svg version="1.1" id="Слой_1" xmlns="http://www.w3.org/2000/svg" xmlns:xlink="http://www.w3.org/1999/xlink" x="0px" y="0px" viewBox="0 0 100 100" style="" xml:space="preserve">
<style type="text/css">
	.st0{fill:none;stroke:#FFFFFF;stroke-linecap:round;stroke-linejoin:round;stroke-miterlimit:10;}
</style>
<path class="st0 QJblgAgf_0" d="M28,10.3L28.2,72.4L57.4,85.1L57.4,74.6L32.9,64.8L33,15.2Z"></path>
<path class="st0 QJblgAgf_1" d="M69,83.3L57.4,85.1L57.4,74.6L60.8,72.5L60.8,65.2L64.4,62.5L64.4,66.7L70.2,65.9L70.2,62.6L72.3,63.3L
	72.3,76.2L69,76.7L69,83.3"></path>
<path class="st0 QJblgAgf_2" d="M60.8,72.5L37.1,62.9L37.1,15.6L33,15.2L32.9,64.8L57.4,74.6Z"></path>
<path class="st0 QJblgAgf_3" d="M60.8,65.2L41.2,56.8L41.2,19.1L37.1,15.6L37.1,62.9L60.8,72.5Z"></path>
<path class="st0 QJblgAgf_4" d="M64.4,62.5L45.1,55.1L45.1,19.9L41.2,19.1L41.2,56.8L60.8,65.2Z"></path>
<path class="st0 QJblgAgf_5" d="M28.2,72.4L32.9,64.8L37.1,62.9L41.2,56.8L45.1,55.1"></path>
<path class="st0 QJblgAgf_6" d="M28,10.3L39.6,9L42.7,12L46.3,11.6L52.7,17.9L50.9,18.8L49.5,17.2L43.5,17.9L45.1,19.9L41.2,19.1L
	37.1,15.6L33,15.2Z"></path>
<path class="st0 QJblgAgf_7" d="M64.4,66.7L64.4,38.8L45.1,19.9"></path>
<path class="st0 QJblgAgf_8" d="M70.2,65.9L70.2,37.8L50.9,18.8"></path>
<path class="st0 QJblgAgf_9" d="M67.5,66.2L67.4,38.2L46.5,17.6"></path>
<style data-made-with="vivus-instant">.QJblgAgf_0{stroke-dasharray:188 190;stroke-dashoffset:189;animation:QJblgAgf_draw 666ms ease-out 0ms forwards;}.QJblgAgf_1{stroke-dasharray:77 79;stroke-dashoffset:78;animation:QJblgAgf_draw 666ms ease-out 37ms forwards;}.QJblgAgf_2{stroke-dasharray:157 159;stroke-dashoffset:158;animation:QJblgAgf_draw 666ms ease-out 74ms forwards;}.QJblgAgf_3{stroke-dasharray:145 147;stroke-dashoffset:146;animation:QJblgAgf_draw 666ms ease-out 111ms forwards;}.QJblgAgf_4{stroke-dasharray:124 126;stroke-dashoffset:125;animation:QJblgAgf_draw 666ms ease-out 148ms forwards;}.QJblgAgf_5{stroke-dasharray:26 28;stroke-dashoffset:27;animation:QJblgAgf_draw 666ms ease-out 185ms forwards;}.QJblgAgf_6{stroke-dasharray:62 64;stroke-dashoffset:63;animation:QJblgAgf_draw 666ms ease-out 222ms forwards;}.QJblgAgf_7{stroke-dasharray:55 57;stroke-dashoffset:56;animation:QJblgAgf_draw 666ms ease-out 259ms forwards;}.QJblgAgf_8{stroke-dasharray:56 58;stroke-dashoffset:57;animation:QJblgAgf_draw 666ms ease-out 296ms forwards;}.QJblgAgf_9{stroke-dasharray:58 60;stroke-dashoffset:59;animation:QJblgAgf_draw 666ms ease-out 333ms forwards;}@keyframes QJblgAgf_draw{100%{stroke-dashoffset:0;}}@keyframes QJblgAgf_fade{0%{stroke-opacity:1;}92.3076923076923%{stroke-opacity:1;}100%{stroke-opacity:0;}}</style></svg>
