<!--?xml version="1.0" encoding="utf-8"?-->
<!-- Generator: Adobe Illustrator 21.1.0, SVG Export Plug-In . SVG Version: 6.00 Build 0)  -->
<svg version="1.1" id="Слой_1" xmlns="http://www.w3.org/2000/svg" xmlns:xlink="http://www.w3.org/1999/xlink" x="0px" y="0px" viewBox="0 0 100 100" style="" xml:space="preserve">
<style type="text/css">
	.st0{fill:none;stroke:#FFFFFF;stroke-linecap:round;stroke-linejoin:round;stroke-miterlimit:10;}
</style>
<g>
	<path class="st0 jnUEfTHF_0" d="M25.2,16.4L25.2,74L34.8,63.5L34.8,21.7Z"></path>
	<path class="st0 jnUEfTHF_1" d="M50.6,88.4L25.2,74L34.8,63.5L50.6,73Z"></path>
	<path class="st0 jnUEfTHF_2" d="M54.1,71L50.6,73L34.8,63.5L38.8,62.2Z"></path>
	<path class="st0 jnUEfTHF_3" d="M34.8,63.5L38.8,62.2L38.8,20.8L34.8,21.7Z"></path>
	<path class="st0 jnUEfTHF_4" d="M17.1,11.9L17.1,73.3L23.5,76.8L23.5,15.7Z"></path>
	<path class="st0 jnUEfTHF_5" d="M17.1,11.9L49.6,3.1L56,6.7L23.5,15.7Z"></path>
	<path class="st0 jnUEfTHF_6" d="M50.6,88.4L54.8,86.9L54.8,83.3L60.4,81.4L60.4,84.9L64.1,83.7L64.1,69.8L61.8,69.2L61.8,72.6L
		54.1,75.1L54.1,71L50.6,73Z"></path>
	<path class="st0 jnUEfTHF_7" d="M25.2,16.4L27.6,15.8L26.1,14.9L35.7,12.3L36.8,12.8L38.8,12.3L47.8,17.9L46.3,18.8L43.9,17.4L
		36.6,19.4L38.9,20.8L34.8,21.7Z"></path>
	<path class="st0 jnUEfTHF_8" d="M54.1,75.1L54.1,29.8L36.6,19.4"></path>
	<path class="st0 jnUEfTHF_9" d="M58.1,73.8L58.1,28.8L40.3,18.4"></path>
	<path class="st0 jnUEfTHF_10" d="M43.9,17.4"></path>
	<path class="st0 jnUEfTHF_11" d="M61.8,72.6L61.8,28L43.9,17.4"></path>
	<path class="st0 jnUEfTHF_12" d="M17.1,75.1L17.1,77.7L50.6,96.9L50.6,93.4Z"></path>
	<path class="st0 jnUEfTHF_13" d="M82.9,88.1L50.6,96.9L50.6,93.4L71.4,87.4L71.4,84L82.9,80.5Z"></path>
	<path class="st0 jnUEfTHF_14" d="M69.1,83.3L64.1,80.6L64.1,69.8L61.8,69.2L61.8,64.1L69.1,68.4Z"></path>
	<path class="st0 jnUEfTHF_15" d="M72.4,66.4L69.1,68.4L61.8,64.1L61.8,60.2Z"></path>
	<path class="st0 jnUEfTHF_16" d="M82.9,79.5L80.4,80.2L80.4,72.1L72.4,74.2L72.4,82.1L69.1,83.3L69.1,68.4L72.4,66.4L72.4,70.5L
		80.5,68.4L80.5,65L82.9,65.3Z"></path>
	<path class="st0 jnUEfTHF_17" d="M40.6,13.4L59.2,8.4L68.6,14.1L66.6,14.8L64.4,13.7L56.3,15.7L58.5,17L54.9,17.4L51.1,15.1L45.7,16.6Z"></path>
	<path class="st0 jnUEfTHF_18" d="M58.5,17L58.5,26.1L55.1,24L54.9,17.4Z"></path>
	<path class="st0 jnUEfTHF_19" d="M51.1,15.1L51.1,21.7"></path>
	<path class="st0 jnUEfTHF_20" d="M56.3,15.7L58.5,17L72.4,25L72.4,70.5"></path>
	<path class="st0 jnUEfTHF_21" d="M80.5,68.4L80.5,22.5L64.4,13.7"></path>
	<path class="st0 jnUEfTHF_22" d="M76.5,69.4L76.5,23.8L60.7,14.6"></path>
	<path class="st0 jnUEfTHF_23" d="M56,6.7L56,9.2"></path>
	<path class="st0 jnUEfTHF_24" d="M82.9,80.5L81.4,79.9"></path>
	<path class="st0 jnUEfTHF_25" d="M17.1,75.1L19.4,74.6"></path>
</g>
<style data-made-with="vivus-instant">.jnUEfTHF_0{stroke-dasharray:125 127;stroke-dashoffset:126;animation:jnUEfTHF_draw 666ms ease-out 0ms forwards;}.jnUEfTHF_1{stroke-dasharray:78 80;stroke-dashoffset:79;animation:jnUEfTHF_draw 666ms ease-out 13ms forwards;}.jnUEfTHF_2{stroke-dasharray:45 47;stroke-dashoffset:46;animation:jnUEfTHF_draw 666ms ease-out 26ms forwards;}.jnUEfTHF_3{stroke-dasharray:92 94;stroke-dashoffset:93;animation:jnUEfTHF_draw 666ms ease-out 40ms forwards;}.jnUEfTHF_4{stroke-dasharray:138 140;stroke-dashoffset:139;animation:jnUEfTHF_draw 666ms ease-out 53ms forwards;}.jnUEfTHF_5{stroke-dasharray:83 85;stroke-dashoffset:84;animation:jnUEfTHF_draw 666ms ease-out 66ms forwards;}.jnUEfTHF_6{stroke-dasharray:73 75;stroke-dashoffset:74;animation:jnUEfTHF_draw 666ms ease-out 80ms forwards;}.jnUEfTHF_7{stroke-dasharray:58 60;stroke-dashoffset:59;animation:jnUEfTHF_draw 666ms ease-out 93ms forwards;}.jnUEfTHF_8{stroke-dasharray:66 68;stroke-dashoffset:67;animation:jnUEfTHF_draw 666ms ease-out 106ms forwards;}.jnUEfTHF_9{stroke-dasharray:66 68;stroke-dashoffset:67;animation:jnUEfTHF_draw 666ms ease-out 119ms forwards;}.jnUEfTHF_10{stroke-dasharray:0 2;stroke-dashoffset:1;animation:jnUEfTHF_draw 666ms ease-out 133ms forwards;}.jnUEfTHF_11{stroke-dasharray:66 68;stroke-dashoffset:67;animation:jnUEfTHF_draw 666ms ease-out 146ms forwards;}.jnUEfTHF_12{stroke-dasharray:83 85;stroke-dashoffset:84;animation:jnUEfTHF_draw 666ms ease-out 160ms forwards;}.jnUEfTHF_13{stroke-dasharray:82 84;stroke-dashoffset:83;animation:jnUEfTHF_draw 666ms ease-out 173ms forwards;}.jnUEfTHF_14{stroke-dasharray:48 50;stroke-dashoffset:49;animation:jnUEfTHF_draw 666ms ease-out 186ms forwards;}.jnUEfTHF_15{stroke-dasharray:29 31;stroke-dashoffset:30;animation:jnUEfTHF_draw 666ms ease-out 199ms forwards;}.jnUEfTHF_16{stroke-dasharray:82 84;stroke-dashoffset:83;animation:jnUEfTHF_draw 666ms ease-out 213ms forwards;}.jnUEfTHF_17{stroke-dasharray:66 68;stroke-dashoffset:67;animation:jnUEfTHF_draw 666ms ease-out 226ms forwards;}.jnUEfTHF_18{stroke-dasharray:24 26;stroke-dashoffset:25;animation:jnUEfTHF_draw 666ms ease-out 239ms forwards;}.jnUEfTHF_19{stroke-dasharray:7 9;stroke-dashoffset:8;animation:jnUEfTHF_draw 666ms ease-out 253ms forwards;}.jnUEfTHF_20{stroke-dasharray:65 67;stroke-dashoffset:66;animation:jnUEfTHF_draw 666ms ease-out 266ms forwards;}.jnUEfTHF_21{stroke-dasharray:65 67;stroke-dashoffset:66;animation:jnUEfTHF_draw 666ms ease-out 280ms forwards;}.jnUEfTHF_22{stroke-dasharray:64 66;stroke-dashoffset:65;animation:jnUEfTHF_draw 666ms ease-out 293ms forwards;}.jnUEfTHF_23{stroke-dasharray:3 5;stroke-dashoffset:4;animation:jnUEfTHF_draw 666ms ease-out 306ms forwards;}.jnUEfTHF_24{stroke-dasharray:2 4;stroke-dashoffset:3;animation:jnUEfTHF_draw 666ms ease-out 320ms forwards;}.jnUEfTHF_25{stroke-dasharray:3 5;stroke-dashoffset:4;animation:jnUEfTHF_draw 666ms ease-out 333ms forwards;}@keyframes jnUEfTHF_draw{100%{stroke-dashoffset:0;}}@keyframes jnUEfTHF_fade{0%{stroke-opacity:1;}92.3076923076923%{stroke-opacity:1;}100%{stroke-opacity:0;}}</style></svg>
