<svg xmlns="http://www.w3.org/2000/svg" viewBox="0 0 8.38 24.94"><defs><style>.cls-1{fill:#c51718;}.cls-2{fill:#fff;opacity:0.2;}</style></defs><title>point-icon</title><g id="Слой_2" data-name="Слой 2"><g id="Слой_1-2" data-name="Слой 1"><polygon points="4.65 24.94 3.52 23.38 3.52 8.38 4.65 8.38 4.65 24.94"/><path class="cls-1" d="M1.74.8A4.18,4.18,0,1,0,8.32,4.69a4.48,4.48,0,0,1-2.07.52A4.52,4.52,0,0,1,1.74.8Z"/><path class="cls-1" d="M4.19,0A4.15,4.15,0,0,0,1.74.8,4.52,4.52,0,0,0,6.26,5.21a4.48,4.48,0,0,0,2.07-.52,4.12,4.12,0,0,0,.05-.5A4.19,4.19,0,0,0,4.19,0Z"/><path class="cls-2" d="M4.19,0A4.15,4.15,0,0,0,1.74.8,4.52,4.52,0,0,0,6.26,5.21a4.48,4.48,0,0,0,2.07-.52,4.12,4.12,0,0,0,.05-.5A4.19,4.19,0,0,0,4.19,0Z"/></g></g></svg>